# xmcd
#
# Track frame offsets: 
#        150
#        17252
#        32160
#        48995
#        61845
#        79737
#        97370
#        113362
#        131177
#        147452
#        165060
#        178012
#        193550
#        209630
#
# Disc length: 3016 seconds
#
# Revision: 0
# Processed by: cddbd v1.5.1PL2 Copyright (c) Steve Scherf et al.
# Submitted via: ExactAudioCopy v0.95b4
#
DISCID=bb0bc60e
DTITLE=ฝน  ธนสุนทร - รวมฮิต ชุด 1
DYEAR=2002
DGENRE=Country
TTITLE0=ขอใช้สิทธิ์
TTITLE1=ใจอ่อน
TTITLE2=ฮักอ้ายโจงโปง
TTITLE3=แอบรักเขา
TTITLE4=อย่ากลัว
TTITLE5=ทิ้งน้องไว้หนองคาย
TTITLE6=อย่าห่วงฉันเลย
TTITLE7=ใครมีปืนเถื่อน
TTITLE8=รักที่เลือกไม่ได้
TTITLE9=ฉันมิใช่นางเอก
TTITLE10=จะรักใครดี
TTITLE11=ฝั่งหัวใจ
TTITLE12=ไม่นอกสายตา
TTITLE13=ร้องไห้ได้ไหมคุณ
EXTD=
EXTT0=
EXTT1=
EXTT2=
EXTT3=
EXTT4=
EXTT5=
EXTT6=
EXTT7=
EXTT8=
EXTT9=
EXTT10=
EXTT11=
EXTT12=
EXTT13=
PLAYORDER=
